<svg width="21" height="21" viewBox="0 0 21 21" fill="none" xmlns="http://www.w3.org/2000/svg">
  <path fill-rule="evenodd" clip-rule="evenodd" d="M7.75 0C5.12665 0 3 2.12665 3 4.75C3 7.37335 5.12665 9.5 7.75 9.5C10.3734 9.5 12.5 7.37335 12.5 4.75C12.5 2.12665 10.3734 0 7.75 0ZM4.5 4.75C4.5 2.95507 5.95507 1.5 7.75 1.5C9.54493 1.5 11 2.95507 11 4.75C11 6.54493 9.54493 8 7.75 8C5.95507 8 4.5 6.54493 4.5 4.75Z" fill="#010307" />
  <path d="M13.75 1C13.3358 1 13 1.33579 13 1.75C13 2.16421 13.3358 2.5 13.75 2.5C14.9926 2.5 16 3.50736 16 4.75C16 5.99264 14.9926 7 13.75 7C13.3358 7 13 7.33579 13 7.75C13 8.16421 13.3358 8.5 13.75 8.5C15.8211 8.5 17.5 6.82107 17.5 4.75C17.5 2.67893 15.8211 1 13.75 1Z" fill="#010307" />
  <path fill-rule="evenodd" clip-rule="evenodd" d="M2.42815 12.2704C3.82752 11.4708 5.71067 11 7.75 11C9.78933 11 11.6725 11.4708 13.0719 12.2704C14.45 13.0579 15.5 14.2601 15.5 15.75C15.5 17.2399 14.45 18.4421 13.0719 19.2296C11.6725 20.0292 9.78933 20.5 7.75 20.5C5.71067 20.5 3.82752 20.0292 2.42815 19.2296C1.05 18.4421 0 17.2399 0 15.75C0 14.2601 1.05 13.0579 2.42815 12.2704ZM3.17236 13.5728C2.01701 14.233 1.5 15.0307 1.5 15.75C1.5 16.4693 2.01701 17.267 3.17236 17.9272C4.30649 18.5753 5.92334 19 7.75 19C9.57666 19 11.1935 18.5753 12.3276 17.9272C13.483 17.267 14 16.4693 14 15.75C14 15.0307 13.483 14.233 12.3276 13.5728C11.1935 12.9247 9.57666 12.5 7.75 12.5C5.92334 12.5 4.30649 12.9247 3.17236 13.5728Z" fill="#010307" />
  <path d="M16.9107 12.0174C16.5061 11.9287 16.1061 12.1847 16.0174 12.5893C15.9287 12.9939 16.1847 13.3939 16.5893 13.4826C17.3817 13.6564 18.0149 13.9548 18.4329 14.2968C18.8514 14.6392 19 14.9737 19 15.25C19 15.5007 18.8794 15.795 18.5469 16.1039C18.212 16.415 17.6975 16.7024 17.0338 16.9023C16.6371 17.0217 16.4124 17.44 16.5318 17.8367C16.6513 18.2333 17.0696 18.458 17.4662 18.3386C18.2888 18.0909 19.0243 17.7078 19.5678 17.2029C20.1137 16.6957 20.5 16.0286 20.5 15.25C20.5 14.3852 20.0258 13.662 19.3828 13.1359C18.7393 12.6093 17.8725 12.2283 16.9107 12.0174Z" fill="#010307" />
</svg>
